<?xml version="1.0" encoding="UTF-8"?><!DOCTYPE svg PUBLIC "-//W3C//DTD SVG 1.1//EN" "http://www.w3.org/Graphics/SVG/1.1/DTD/svg11.dtd"><svg xmlns="http://www.w3.org/2000/svg">

<symbol id="my-first-element" viewBox="-290 382 30 30">
  <path d="M-262.1,403.9C-262.1,403.8-262.1,403.8-262.1,403.9c0.1-0.1,0.1-0.1,0.1-0.2c0,0,0,0,0-0.1v-13.2l0,0c0,0,0,0,0-0.1c0,0,0,0,0-0.1c0,0,0,0,0-0.1l0,0l0,0c0,0,0,0,0-0.1l0,0c0,0,0,0-0.1,0l0,0l-12.2-6.6l0,0h-0.1h-0.1h-0.1h-0.1l0,0l-13,6.6l0,0c0,0,0,0-0.1,0l0,0c0,0,0,0,0,0.1l0,0l0,0l0,0v0.1v0.1l0,0v13.2c0,0,0,0,0,0.1v0.1v0.1c0,0,0,0.1,0.1,0.1c0,0,0.1,0,0.1,0.1c0,0,0,0,0.1,0l12.9,6.6l0,0c0.1,0,0.1,0.1,0.2,0.1l0,0c0.1,0,0.2,0,0.2-0.1l0,0l11.9-6.6l0,0C-262.2,404-262.2,404-262.1,403.9C-262.2,403.9-262.2,403.9-262.1,403.9z M-274.5,384.4l10.9,6l-10.9,6l-11.8-6L-274.5,384.4z M-286.9,391.2l11.9,6.1v12.1l-11.9-6.1V391.2z M-274,397.3l10.9-6.1v12.1l-10.9,6.1V397.3z"/>
</symbol>

<symbol id="my-second-element" viewBox="-290 382 30 30">
  <path d="M-262.1,403.9C-262.1,403.8-262.1,403.8-262.1,403.9c0.1-0.1,0.1-0.1,0.1-0.2c0,0,0,0,0-0.1v-13.2l0,0c0,0,0,0,0-0.1c0,0,0,0,0-0.1c0,0,0,0,0-0.1l0,0l0,0c0,0,0,0,0-0.1l0,0c0,0,0,0-0.1,0l0,0l-12.2-6.6l0,0h-0.1h-0.1h-0.1h-0.1l0,0l-13,6.6l0,0c0,0,0,0-0.1,0l0,0c0,0,0,0,0,0.1l0,0l0,0l0,0v0.1v0.1l0,0v13.2c0,0,0,0,0,0.1v0.1v0.1c0,0,0,0.1,0.1,0.1c0,0,0.1,0,0.1,0.1c0,0,0,0,0.1,0l12.9,6.6l0,0c0.1,0,0.1,0.1,0.2,0.1l0,0c0.1,0,0.2,0,0.2-0.1l0,0l11.9-6.6l0,0C-262.2,404-262.2,404-262.1,403.9C-262.2,403.9-262.2,403.9-262.1,403.9z M-274.5,384.4l10.9,6l-10.9,6l-11.8-6L-274.5,384.4z M-286.9,391.2l11.9,6.1v12.1l-11.9-6.1V391.2z M-274,397.3l10.9-6.1v12.1l-10.9,6.1V397.3z"/>
</symbol>

<symbol id="default" viewBox="-290 382 30 30">
  <path d="M-262.1,403.9C-262.1,403.8-262.1,403.8-262.1,403.9c0.1-0.1,0.1-0.1,0.1-0.2c0,0,0,0,0-0.1v-13.2l0,0c0,0,0,0,0-0.1c0,0,0,0,0-0.1c0,0,0,0,0-0.1l0,0l0,0c0,0,0,0,0-0.1l0,0c0,0,0,0-0.1,0l0,0l-12.2-6.6l0,0h-0.1h-0.1h-0.1h-0.1l0,0l-13,6.6l0,0c0,0,0,0-0.1,0l0,0c0,0,0,0,0,0.1l0,0l0,0l0,0v0.1v0.1l0,0v13.2c0,0,0,0,0,0.1v0.1v0.1c0,0,0,0.1,0.1,0.1c0,0,0.1,0,0.1,0.1c0,0,0,0,0.1,0l12.9,6.6l0,0c0.1,0,0.1,0.1,0.2,0.1l0,0c0.1,0,0.2,0,0.2-0.1l0,0l11.9-6.6l0,0C-262.2,404-262.2,404-262.1,403.9C-262.2,403.9-262.2,403.9-262.1,403.9z M-274.5,384.4l10.9,6l-10.9,6l-11.8-6L-274.5,384.4z M-286.9,391.2l11.9,6.1v12.1l-11.9-6.1V391.2z M-274,397.3l10.9-6.1v12.1l-10.9,6.1V397.3z"/>
</symbol>

</svg>